<svg id="Layer_1" data-name="Layer 1" xmlns="http://www.w3.org/2000/svg" viewBox="0 0 807 181"><defs><style>.cls-1,.cls-4{fill:#f7931e;}.cls-1{opacity:0.43;}.cls-2{font-size:9px;font-family:OpenSans-Semibold, Open Sans;}.cls-2,.cls-5{font-weight:700;}.cls-3{fill:none;stroke:#000;}.cls-3,.cls-4{stroke-miterlimit:10;}.cls-4{stroke:#fff;stroke-width:4px;}.cls-5{font-size:8px;font-family:OpenSans-Bold, Open Sans;}.cls-6{fill:#00a99d;opacity:0.41;}</style></defs><title>Proposal Diagram</title><rect class="cls-1" x="527" y="38.5" width="67" height="108.5"/><text class="cls-2" transform="translate(536 57.84)">Remaining <tspan x="0" y="12">co-design </tspan><tspan x="0" y="24">session/ </tspan><tspan x="0" y="36">hackathon </tspan><tspan x="0" y="48">(if needed)</tspan></text><text class="cls-2" transform="translate(674 57.84)">Full synthesis <tspan x="0" y="12">of co-design </tspan><tspan x="0" y="24">sessions;</tspan><tspan x="0" y="36">Contributions </tspan><tspan x="0" y="48">to version 1.0 </tspan><tspan x="0" y="60">of I&amp;APs </tspan></text><rect class="cls-1" x="64.5" y="38.5" width="90.5" height="108.5"/><rect class="cls-1" x="160" y="38.5" width="362" height="108.5"/><line class="cls-3" x1="36" y1="147.5" x2="770" y2="147.5"/><circle class="cls-4" cx="35" cy="147" r="6.5"/><text class="cls-5" transform="translate(25.97 168.5)">MAY</text><circle class="cls-4" cx="157.71" cy="147.5" r="6.5"/><text class="cls-5" transform="translate(147.87 168.5)">JUNE</text><circle class="cls-4" cx="280.13" cy="147.5" r="6.5"/><text class="cls-5" transform="translate(271.03 168.5)">JULY</text><circle class="cls-4" cx="402.25" cy="147.5" r="6.5"/><text class="cls-5" transform="translate(386.03 168.5)">AUGUST</text><circle class="cls-4" cx="524.67" cy="147.5" r="6.5"/><text class="cls-5" transform="translate(501.82 168.5)">SEPTEMBER</text><circle class="cls-4" cx="647.08" cy="147.5" r="6.5"/><text class="cls-5" transform="translate(628.28 168.5)">OCTOBER</text><circle class="cls-4" cx="769.5" cy="147.5" r="6.5"/><text class="cls-5" transform="translate(746.88 168.5)">NOVEMBER</text><line class="cls-3" x1="64.5" y1="137.5" x2="64.5" y2="157"/><text class="cls-2" transform="translate(76 57.84)">Planning of <tspan x="0" y="12">co-design &amp; </tspan><tspan x="0" y="24">hackathon </tspan><tspan x="0" y="36">events </tspan></text><text class="cls-2" transform="translate(174 57.84)">Co-design <tspan x="0" y="12">sessions and </tspan><tspan x="0" y="24">hackathons</tspan></text><text class="cls-2" transform="translate(414 57.84)">Initial synthesis of <tspan x="0" y="12">co-design insights to </tspan><tspan x="0" y="24">date;</tspan><tspan x="0" y="36">Contributions to draft </tspan><tspan x="0" y="48">Inclusion and </tspan><tspan x="0" y="60">Accessibility Principles </tspan><tspan x="0" y="72">document</tspan></text><path d="M487.1,134.86a7.86,7.86,0,1,0-12.27,6.5l4.41,7.64,4.41-7.64A7.85,7.85,0,0,0,487.1,134.86Z"/><text class="cls-2" transform="translate(606 57.84)">Second <tspan x="0" y="12">iteration of </tspan><tspan x="0" y="24">contributions </tspan><tspan x="0" y="36">to I&amp;AP </tspan><tspan x="0" y="48">document</tspan></text><path d="M629.1,134.86a7.86,7.86,0,1,0-12.27,6.5l4.41,7.64,4.41-7.64A7.85,7.85,0,0,0,629.1,134.86Z"/><path d="M691.1,134.86a7.86,7.86,0,1,0-12.27,6.5l4.41,7.64,4.41-7.64A7.85,7.85,0,0,0,691.1,134.86Z"/><polygon class="cls-6" points="681 34 160 34 160 13 681 13 688 23.5 681 34"/><text class="cls-2" transform="translate(171 26.84)">Creating and sharing inclusive cities co-design toolkit</text></svg>